<svg width="1178" height="780" viewBox="0 0 1178 780" fill="none" xmlns="http://www.w3.org/2000/svg">
<path d="M126.176 248H180.18L222.465 331.691H224.223L266.508 248H320.512L247.367 381.203V448H199.32V381.203L126.176 248ZM340.775 448V248H388.529V323.684H389.506C391.459 319.126 394.226 314.732 397.807 310.5C401.452 306.268 406.075 302.818 411.674 300.148C417.338 297.414 424.109 296.047 431.986 296.047C442.403 296.047 452.136 298.781 461.186 304.25C470.3 309.719 477.657 318.15 483.256 329.543C488.855 340.936 491.654 355.454 491.654 373.098C491.654 390.09 488.952 404.315 483.549 415.773C478.21 427.232 470.984 435.826 461.869 441.555C452.82 447.284 442.761 450.148 431.693 450.148C424.141 450.148 417.598 448.911 412.064 446.437C406.531 443.964 401.876 440.708 398.1 436.672C394.389 432.635 391.524 428.306 389.506 423.684H388.041V448H340.775ZM387.553 373C387.553 381.073 388.627 388.104 390.775 394.094C392.989 400.083 396.146 404.738 400.248 408.059C404.415 411.314 409.395 412.941 415.189 412.941C421.049 412.941 426.029 411.314 430.131 408.059C434.232 404.738 437.325 400.083 439.408 394.094C441.557 388.104 442.631 381.073 442.631 373C442.631 364.927 441.557 357.928 439.408 352.004C437.325 346.079 434.232 341.49 430.131 338.234C426.094 334.979 421.114 333.352 415.189 333.352C409.33 333.352 404.35 334.947 400.248 338.137C396.146 341.327 392.989 345.884 390.775 351.809C388.627 357.733 387.553 364.797 387.553 373ZM586.698 450.832C570.943 450.832 557.401 447.609 546.073 441.164C534.81 434.654 526.119 425.604 519.999 414.016C513.944 402.362 510.917 388.853 510.917 373.488C510.917 358.059 513.944 344.549 519.999 332.961C526.119 321.307 534.81 312.258 546.073 305.812C557.401 299.302 570.943 296.047 586.698 296.047C602.453 296.047 615.963 299.302 627.226 305.812C638.554 312.258 647.245 321.307 653.3 332.961C659.42 344.549 662.48 358.059 662.48 373.488C662.48 388.853 659.42 402.362 653.3 414.016C647.245 425.604 638.554 434.654 627.226 441.164C615.963 447.609 602.453 450.832 586.698 450.832ZM586.991 414.797C592.72 414.797 597.571 413.039 601.542 409.523C605.513 406.008 608.541 401.125 610.624 394.875C612.772 388.625 613.847 381.398 613.847 373.195C613.847 364.862 612.772 357.57 610.624 351.32C608.541 345.07 605.513 340.187 601.542 336.672C597.571 333.156 592.72 331.398 586.991 331.398C581.067 331.398 576.054 333.156 571.952 336.672C567.916 340.187 564.823 345.07 562.675 351.32C560.591 357.57 559.55 364.862 559.55 373.195C559.55 381.398 560.591 388.625 562.675 394.875C564.823 401.125 567.916 406.008 571.952 409.523C576.054 413.039 581.067 414.797 586.991 414.797ZM756.962 450.832C741.207 450.832 727.665 447.609 716.337 441.164C705.074 434.654 696.382 425.604 690.263 414.016C684.208 402.362 681.181 388.853 681.181 373.488C681.181 358.059 684.208 344.549 690.263 332.961C696.382 321.307 705.074 312.258 716.337 305.812C727.665 299.302 741.207 296.047 756.962 296.047C772.717 296.047 786.226 299.302 797.489 305.812C808.817 312.258 817.509 321.307 823.563 332.961C829.683 344.549 832.743 358.059 832.743 373.488C832.743 388.853 829.683 402.362 823.563 414.016C817.509 425.604 808.817 434.654 797.489 441.164C786.226 447.609 772.717 450.832 756.962 450.832ZM757.255 414.797C762.984 414.797 767.834 413.039 771.806 409.523C775.777 406.008 778.804 401.125 780.888 394.875C783.036 388.625 784.11 381.398 784.11 373.195C784.11 364.862 783.036 357.57 780.888 351.32C778.804 345.07 775.777 340.187 771.806 336.672C767.834 333.156 762.984 331.398 757.255 331.398C751.33 331.398 746.317 333.156 742.216 336.672C738.179 340.187 735.087 345.07 732.938 351.32C730.855 357.57 729.813 364.862 729.813 373.195C729.813 381.398 730.855 388.625 732.938 394.875C735.087 401.125 738.179 406.008 742.216 409.523C746.317 413.039 751.33 414.797 757.255 414.797ZM900.272 408.645L900.468 351.711H907.108L949.296 298H1003.4L940.702 374.953H928.104L900.272 408.645ZM857.206 448V248H904.96V448H857.206ZM950.37 448L911.112 385.695L942.558 351.809L1005.55 448H950.37Z" fill="black"/>
<path d="M1118.06 76.2709H1040.23C927.38 25.8923 831.564 0 755.189 0C656.271 0 609.963 43.1071 589.015 75.9896C568.077 43.1071 521.777 0 422.84 0C346.47 0 250.645 25.9146 137.766 76.2709H59.948C26.8434 76.2709 0 103.111 0 136.219V719.727C0 752.843 26.8434 779.675 59.948 779.675H1118.06C1151.17 779.675 1178 752.843 1178 719.727V136.219C1178 103.114 1151.17 76.2709 1118.06 76.2709ZM572.784 112.658C572.607 113.583 572.529 114.519 572.529 115.459V665.789C546.315 635.519 502.405 612.361 428.935 612.361C297.79 612.361 133.166 684.269 74.3799 712.078V139.534C124.736 113.901 171.74 92.9564 215.576 76.2709C296.043 45.6641 365.542 29.974 422.818 29.974C493.098 29.974 531.502 53.4869 552.284 76.2709C564.277 89.4224 570.453 102.315 573.369 110.286C573.029 111.622 572.803 112.576 572.784 112.658ZM1103.61 712.078C1044.83 684.266 880.21 612.361 749.072 612.361C675.584 612.361 631.693 635.504 605.475 665.789C604.509 666.899 603.395 667.935 602.499 669.068V117.154C602.81 115.855 603.495 113.524 604.657 110.401C607.613 102.448 613.904 89.5038 626.031 76.2894C646.931 53.5054 685.335 29.9888 755.178 29.9888C812.454 29.9888 881.924 45.6789 962.42 76.2894C1006.29 92.9749 1053.26 113.923 1103.61 139.557V712.078H1103.61Z" fill="black"/>
</svg>
